<?xml version="1.0" encoding="UTF-8"?><svg id="a" xmlns="http://www.w3.org/2000/svg" width="auto" height="auto" viewBox="0 0 108.552 67.8843"><defs><style>.b{fill:#f6f4f4;}.b,.c{stroke-width:0px;}.c{fill:#b9b8b7;}</style></defs><path class="b" d="M88.6613,45.4072c-.9809.4136-1.5428,1.3951-2.5832.3572-1.9134-2.4673-4.2492-4.6176-6.3459-6.9478-.7228-.7899-1.2546-1.718-1.574-2.7399-.8497-2.5849-1.7805-5.1487-2.6738-7.7109-1.0269-2.0492-1.3667-4.1685-2.1971-6.3652-.0625-.207-.1968-.5389-.3518-.5887-.1305-.0532-.2893.0482-.4646.2422-.4562.5447-.9145,1.1451-1.358,1.6953-5.1178,6.451-10.2504,12.9264-15.3635,19.3731-.2535.3194-.5148.7558-.9544.6714-.4723-.1482-1.1228-.6348-1.0625-1.1573.02-.285.2218-.6104.3897-.8432,2.3754-3.0671,4.837-6.0574,7.1625-9.1756,2.5256-3.2682,5.2447-6.3899,7.7695-9.6554.8212-1.274,3.3863-3.1164,2.8025-4.6659-.2204-.6419-.5663-1.4639-1.2297-1.5544-9.4697-.2889-18.9942-.0119-28.4777-.1102-.4823-.0035-1.2138-.0305-1.2238.5745,2.1714,8.0057,4.9578,15.8995,7.2116,23.913.5463,2.4112,3.5539.2736,6.1034,3.2181,2.5148,2.6835,2.27,7.5956-.8827,9.738-.7785.7487-2.4731.7044-2.4429,2.0294.1171,1.9817-.1861,4.044.1462,5.9931.2491.5564,1.1252.4226,1.8264.4291.492-.0051.9797-.0024,1.4725-.0099.759-.0223,1.5563.0123,1.6619.7594.1839.9599-.3266,1.5219-1.334,1.4536-1.2922-.0084-2.5826-.0243-3.8748-.0186-1.3748-.0038-2.7263.028-4.1181.0207-.2945-.0074-.6598-.0575-.8635-.2394-.4248-.3803-.4541-1.6035.2132-1.8451.6974-.2024,1.3655-.0873,2.0749-.1131.6407-.0175,1.4422.1222,1.747-.33.1561-.221.184-.532.1916-.8129-.0109-1.6663-.0071-3.3077-.0017-4.9586.0648-.6571-.324-1.135-.993-1.1516-1.8639-.1462-3.6137-.7212-5.43-1.1462-.7657-.2389-1.5732-.1331-1.8926.6696-3.59,8.642-12.5792,14.291-21.9139,13.3841-26.2604-3.3082-26.598-40.8077-.0389-44.354,3.5552-.3977,7.0512.1753,10.3989,1.6469.6542.2449,1.1558.6968.7147,1.3836-1.0531,2.3382-1.7875,1.7404-3.7164.9752-6.5402-2.0815-13.4647-.2485-18.2729,4.374-6.8878,6.5439-8.0297,18.2693-1.6989,25.67,5.4368,7.0442,15.718,9.4426,23.3342,4.8615,3.377-1.8834,6.5188-5.3243,8.1278-8.9345.1853-.4859.0497-.7897-.4025-.9676-4.8794-1.2549-9.8348-2.3578-14.7156-3.6063-1.0915-.1937-4.76-1.2129-1.041-1.0881,5.2537.3297,10.4883,1.001,15.7185,1.5468.5587.0533,1.3633.2361,1.6837-.3532.3312-1.0876,1.0099-3.2308-.5594-3.4923-4.7182-.2126-9.4565-1.0113-14.1691-1.4249-.6944.0287-2.0877-.501-2.3747.2784.0062.1418.1649.2672.3975.3275,5.1787.5868,10.3799.9409,15.5522,1.6564,1.1245.1281,1.15,2.1213-.0038,2.1582-5.4153-.532-10.8262-1.3452-16.2594-1.843-.7851-.0189-2.214-.4983-2.3096-1.2398,6.3244-9.4503,11.667-19.7043,17.8414-29.3369.6628-.9025.2418-1.9363-.0695-2.8798-.4753-1.7517-.9581-3.5138-1.5194-5.2423-.2632-.6325-.273-1.6318.5807-1.7395.4471-.069.671.4178.779.8382.6313,2.0091,1.2706,4.0683,1.8894,6.0903.1791.9476,1.0594,1.157,1.9162,1.0921,9.4108-.0209,18.8359-.0061,28.278-.0175.3663-.0248.6546-.094.7074-.4443.0277-.4609-.2363-.9123-.3408-1.3739-.4279-1.5736,1.2884-1.0737.6243-2.9994-.2936-1.3609-.1098-2.2463.7024-3.1356.7497-.7834,3.9689-3.6393,4.4299-2.4324-.69,1.1177-1.8504,1.7475-2.8363,2.697-.457.4037-1.0349.862-1.1399,1.4832-.0088,1.9163.9447,3.848,1.4124,5.6975.9311,2.9574,1.9464,5.8873,2.9464,8.8221,1.9413,5.3244,3.4145,10.8339,5.606,16.0361,1.2243,1.8374,2.9077,3.4755,4.4863,5.029.6131.5789,1.0762,1.4364,1.9049,1.7101.1757.0758.2886.107.2767.1397l-.0063.0103ZM23.5182,42.8377c.1119.1493.5104.1307.7401.123,5.0044-.136,9.8811-.268,14.769-.3904.3129-.0104.7621-.0279.9323-.2753.1732-.2298.0851-.6339.0131-.9272-1.0546-4-3.0844-7.3926-6.1759-10.1556-.743-.7103-2.4233-1.3489-1.4958-2.5816.7532-1.1426,1.0143-2.0711,2.3152-.9945,4.5176,3.4276,7.548,8.2359,8.5573,13.8058.3255,1.2256,1.7039.9068,2.8076.8549,1.1035-.0306.8181-.9403.5673-1.7052-2.1275-6.8439-4.2004-13.6739-6.2745-20.5307-.2853-.9376-.5695-1.911-.8648-2.8566-.088-.2553-.1892-.4162-.314-.4036-5.6568,8.1373-10.3436,17.0113-15.4674,25.5046-.1189.2148-.1824.3925-.1284.5012l.0188.0311ZM46.9603,48.2085c-.0269,3.6227,5.211,3.6424,5.1846.0222-.1984-3.2974-4.9366-3.3593-5.1837-.0948l-.001.0727ZM45.3692,49.97c.1767-.0743.4796.0809.655.0113.2165-.116.1973-.5543-.0331-.6514-.8136-.1212-1.7312-.297-2.5618-.2255-.1485.0707-.1922.3789-.0957.5167.0946.1452.353.1588.5468.1789.4751.0382.951.1453,1.433.1762l.0559-.0063ZM45.4863,46.9792c.2381.0043.7307.137.9307.0516.1415-.0706.1889-.3457.0853-.4535-.4002-.2465-.9508-.1446-1.3931-.2422-.428-.0017-.9168-.2114-1.3197-.0595-.1791.1546-.101.5181.1514.5668.503.09.9542.0771,1.4905.132l.0549.0048Z"/><path class="b" d="M74.5819,27.4885c.2044.2242.1728.6201.2922.9026.4448,1.1924.9081,1.9232-.2049,2.8484-11.5303,10.314-6.3989,29.5646,8.4801,32.9161,11.6726,3.0449,24.4202-8.465,22.103-21.7378-1.8416-11.471-14.6192-19.1982-25.6062-14.3468-.4352.1578-.7679-.0459-.8864-.4466-.1239-.7218-1.0019-1.7275-.3609-2.3376,10.0313-4.673,20.5397-.2058,25.7067,6.6663,9.8988,13.3697,2.4793,33.2575-14.4314,35.6346-9.1848,1.5245-18.4901-4.0861-22.3673-12.4732-4.4598-9.3848-1.6569-21.908,7.2466-27.6424l.0285.0166Z"/><path class="b" d="M73.2487,1.044c2.848.081,6.3046-.6339,8.5594,1.547,2.8974,2.8656,2.2695,7.0786-.7929,9.5339-1.4454,1.2764-3.1169,2.1004-5.0708,2.3195-.52.0228-2.058.2932-1.68-.6306.3925-.6094.6298-1.5562,1.4183-1.7299,1.3165-.1371,2.5865-.4804,3.616-1.2907,1.8603-1.2724,3.3091-3.5769,1.8698-5.7043-.8159-1.4105-2.4665-2.1677-4.0837-2.0701-2.7747.008-5.5191.0407-8.2964.0349-.8554.0564-1.845-.5401-1.4194-1.5026.1443-.3065.4682-.4487.7924-.47.8004-.0276,1.6432-.0137,2.4639-.0196.8626-.0031,1.8022.0122,2.5549-.0153l.0685-.0019Z"/><path class="b" d="M41.3739,3.2104c-1.2005-.0672-2.189,1.0551-3.1218,1.6825-1.2208.8739-2.6019,1.7676-4.1542,1.7798-.9615.0106-1.8655-.5627-2.7204-1.0054-.9038-.4887-1.8398-.9429-2.7244-1.4619-1.146-.7197-1.1515-2.2374-1.5499-3.4214-.3128-1.3233,1.0762-.625,1.8487-.3828,4.3695,1.398,5.2351,2.4964,9.829.737,1.3185-.206,2.8302.109,3.9577.8844.2453.2145.371.5552.228.84-.2855.4947-1.0418.3187-1.5251.347l-.0677.0007ZM38.7913,3.312c-2.0856.3822-3.9651,1.7168-6.4227,1.5397-.0696.0022-.2949-.0293-.2975.0361,2.429,1.688,4.7998.0697,6.7261-1.5632l-.0059-.0126Z"/><path class="b" d="M46.7603,35.6861c-.1125-.2735-.0803-.6079-.1796-.9683-.1834-.7109.3117-.9249.9199-.9003,2.9814.0722,5.9506-.0987,8.9249.0693.7228.1456.6529,1.1569.3623,1.628-.2588.3749-.7956.3962-1.2246.4-2.7333-.0279-5.445-.0482-8.1723-.069-.2025-.0052-.4917.0234-.6068-.1243l-.0239-.0354Z"/><polygon class="c" points="75.9331 56.4152 75.9377 56.371 76.0084 56.3914 75.9331 56.4152"/><path class="b" d="M47.9425,48.2402c.0261-2.0437,3.0908-2.0918,3.2636-.0994.1288,2.3094-3.2316,2.4844-3.2645.1706l.0009-.0712Z"/><path class="b" d="M18.7756,44.3884c-4.7158,0-9.4316,0-14.1474,0-.6223,0-.6233.9671,0,.9671,4.7158,0,9.4316,0,14.1474,0,.6223,0,.6233-.9671,0-.9671h0Z"/><path class="b" d="M18.9741,48.7054c-2.9965,3.062-5.993,6.124-8.9895,9.186-.4356.4452.2476,1.1296.6838.6838,2.9965-3.062,5.993-6.124,8.9895-9.186.4356-.4452-.2476-1.1296-.6838-.6838h0Z"/><path class="b" d="M84.12,47.7721c-2.9965,3.062-5.993,6.124-8.9895,9.186-.4356.4452.2476,1.1296.6838.6838,2.9965-3.062,5.993-6.124,8.9895-9.186.4356-.4452-.2476-1.1296-.6838-.6838h0Z"/><path class="b" d="M98.8569,32.7896c-2.9965,3.062-5.993,6.124-8.9895,9.186-.4356.4452.2476,1.1296.6838.6838,2.9965-3.062,5.993-6.124,8.9895-9.186.4356-.4452-.2476-1.1296-.6838-.6838h0Z"/><path class="b" d="M89.8674,47.4014c3.3269,2.6994,6.6538,5.3987,9.9806,8.0981.4792.3888,1.1675-.2914.6838-.6838-3.3269-2.6994-6.6538-5.3987-9.9806-8.0981-.4792-.3888-1.1675.2914-.6838.6838h0Z"/><path class="b" d="M11.2844,31.4829c2.384,3.1595,4.768,6.319,7.152,9.4786l1.0024,1.3285c.3702.4907,1.2104.0093.8351-.4881-2.384-3.1595-4.768-6.319-7.152-9.4786l-1.0024-1.3285c-.3702-.4907-1.2104-.0093-.8351.4881h0Z"/><path class="b" d="M33.7259,35.5893c-2.5047,1.7633-5.0095,3.5267-7.5142,5.29l-1.0639.749c-.505.3555-.0224,1.1944.4881.8351,2.5047-1.7633,5.0095-3.5267,7.5142-5.29l1.0639-.749c.505-.3555.0224-1.1944-.4881-.8351h0Z"/><path class="b" d="M21.4532,50.404c1.1319,3.3813,2.2638,6.7626,3.3957,10.144l.485,1.449c.1966.5872,1.1309.3354.9326-.2571-1.1319-3.3813-2.2638-6.7626-3.3957-10.144l-.485-1.449c-.1966-.5872-1.1309-.3354-.9326.2571h0Z"/><path class="b" d="M86.7998,48.842c.0305,4.0621.0611,8.1243.0916,12.1864l.0129,1.7221c.0047.622.9718.6235.9671,0-.0305-4.0621-.0611-8.1243-.0916-12.1864l-.0129-1.7221c-.0047-.622-.9718-.6235-.9671,0h0Z"/><path class="b" d="M83.2247,45.7369h-11.7895c-.6223,0-.6233.9671,0,.9671h11.7895c.6223,0,.6233-.9671,0-.9671h0Z"/><path class="b" d="M88.8489,42.6426c.8738-4.1541,1.7476-8.3082,2.6214-12.4623.125-.5944.2501-1.1889.3751-1.7833.1277-.6072-.8043-.8668-.9326-.2571-.8738,4.1541-1.7476,8.3082-2.6214,12.4623-.125.5944-.2501,1.1889-.3751,1.7833-.1277.6072.8043.8668.9326.2571h0Z"/><path class="b" d="M90.7708,44.9452c3.8585-.7105,7.717-1.4209,11.5755-2.1314.5462-.1006,1.0924-.2011,1.6386-.3017.6112-.1125.3523-1.0448-.2571-.9326-3.8585.7105-7.717,1.4209-11.5755,2.1314-.5462.1006-1.0924.2011-1.6386.3017-.6112.1125-.3523,1.0448.2571.9326h0Z"/></svg>