<?xml version="1.0" encoding="UTF-8"?><svg id="a" xmlns="http://www.w3.org/2000/svg" width="38.2947mm" height="23.9481mm" viewBox="0 0 108.552 67.8843"><defs><style>.b{fill:#f6f4f4;}.b,.c{stroke-width:0px;}.c{fill:#b9b8b7;}</style></defs><path class="b" d="M19.8844,45.3969c-.0119-.0327.101-.0639.2767-.1397.8287-.2737,1.2918-1.1312,1.9049-1.7101,1.5786-1.5535,3.2619-3.1916,4.4863-5.029,2.1915-5.2023,3.6647-10.7117,5.606-16.0361,1-2.9348,2.0152-5.8647,2.9464-8.8221.4677-1.8495,1.4212-3.7812,1.4124-5.6975-.105-.6212-.683-1.0796-1.1399-1.4832-.9858-.9495-2.1462-1.5792-2.8363-2.697.4611-1.2068,3.6803,1.6491,4.4299,2.4324.8122.8893.996,1.7747.7024,3.1356-.6641,1.9257,1.0522,1.4257.6243,2.9994-.1045.4617-.3685.913-.3408,1.3739.0527.3503.341.4195.7074.4443,9.4421.0113,18.8671-.0034,28.278.0175.8568.0649,1.7371-.1445,1.9162-1.0921.6188-2.022,1.2581-4.0812,1.8894-6.0903.108-.4205.3319-.9073.779-.8382.8537.1077.8438,1.107.5807,1.7395-.5614,1.7286-1.0441,3.4906-1.5194,5.2423-.3113.9435-.7323,1.9773-.0695,2.8798,6.1744,9.6327,11.517,19.8866,17.8414,29.3369-.0957.7415-1.5246,1.2209-2.3096,1.2398-5.4332.4977-10.8441,1.3109-16.2594,1.843-1.1538-.0368-1.1283-2.0301-.0038-2.1582,5.1723-.7156,10.3735-1.0697,15.5522-1.6564.2326-.0603.3913-.1857.3975-.3275-.2871-.7794-1.6804-.2497-2.3747-.2784-4.7127.4136-9.4509,1.2123-14.1691,1.4249-1.5693.2614-.8906,2.4047-.5594,3.4923.3203.5893,1.1249.4065,1.6837.3532,5.2302-.5457,10.4649-1.2171,15.7185-1.5468,3.719-.1248.0506.8944-1.041,1.0881-4.8808,1.2485-9.8362,2.3515-14.7156,3.6063-.4523.1779-.5878.4818-.4025.9676,1.609,3.6103,4.7507,7.0511,8.1278,8.9345,7.6162,4.5811,17.8974,2.1827,23.3342-4.8615,6.3308-7.4007,5.1889-19.1261-1.6989-25.67-4.8082-4.6225-11.7327-6.4555-18.2729-4.374-1.929.7652-2.6633,1.363-3.7164-.9752-.4411-.6868.0606-1.1387.7147-1.3836,3.3476-1.4716,6.8437-2.0446,10.3989-1.6469,26.559,3.5463,26.2215,41.0459-.0389,44.354-9.3347.9069-18.3239-4.7421-21.9139-13.3841-.3194-.8027-1.1269-.9085-1.8926-.6696-1.8162.425-3.566,1-5.43,1.1462-.6689.0166-1.0578.4945-.993,1.1516.0054,1.651.0092,3.2924-.0017,4.9586.0076.281.0355.5919.1916.8129.3048.4522,1.1063.3124,1.747.33.7094.0259,1.3775-.0893,2.0749.1131.6673.2416.638,1.4649.2132,1.8451-.2037.1818-.569.232-.8635.2394-1.3918.0073-2.7433-.0246-4.1181-.0207-1.2922-.0057-2.5826.0102-3.8748.0186-1.0074.0684-1.5179-.4937-1.334-1.4536.1056-.7472.9029-.7817,1.6619-.7594.4928.0075.9806.0048,1.4725.0099.7012-.0066,1.5772.1273,1.8264-.4291.3324-1.9491.0291-4.0113.1462-5.9931.0303-1.325-1.6644-1.2807-2.4429-2.0294-3.1527-2.1424-3.3975-7.0545-.8827-9.738,2.5494-2.9445,5.5571-.8068,6.1034-3.2181,2.2538-8.0135,5.0401-15.9073,7.2116-23.913-.01-.605-.7415-.578-1.2238-.5745-9.4835.0983-19.008-.1786-28.4777.1102-.6634.0905-1.0094.9125-1.2297,1.5544-.5838,1.5495,1.9813,3.3919,2.8025,4.6659,2.5248,3.2655,5.2439,6.3873,7.7695,9.6554,2.3255,3.1182,4.7871,6.1085,7.1625,9.1756.1679.2328.3697.5582.3897.8432.0603.5225-.5902,1.0091-1.0625,1.1573-.4396.0845-.7009-.352-.9544-.6714-5.1131-6.4467-10.2457-12.9221-15.3635-19.3731-.4435-.5502-.9019-1.1505-1.358-1.6953-.1753-.194-.3341-.2954-.4646-.2422-.155.0497-.2893.3817-.3518.5887-.8304,2.1967-1.1702,4.316-2.1971,6.3652-.8933,2.5622-1.8241,5.126-2.6738,7.7109-.3194,1.0218-.8512,1.95-1.574,2.7399-2.0967,2.3302-4.4325,4.4805-6.3459,6.9478-1.0403,1.0379-1.6023.0565-2.5832-.3572l-.0063-.0103ZM85.0526,42.8067c.054-.1087-.0094-.2864-.1284-.5012-5.1238-8.4934-9.8105-17.3673-15.4674-25.5046-.1248-.0126-.2261.1483-.314.4036-.2953.9456-.5796,1.9191-.8648,2.8566-2.0741,6.8568-4.1469,13.6868-6.2745,20.5307-.2508.7649-.5362,1.6746.5673,1.7052,1.1038.0519,2.4821.3707,2.8076-.8549,1.0093-5.5698,4.0397-10.3781,8.5573-13.8058,1.3009-1.0766,1.562-.1481,2.3152.9945.9275,1.2327-.7528,1.8713-1.4958,2.5816-3.0915,2.763-5.1212,6.1556-6.1759,10.1556-.072.2933-.1601.6974.0131.9272.1702.2474.6194.2648.9323.2753,4.8879.1224,9.7647.2544,14.769.3904.2297.0076.6282.0263.7401-.123l.0188-.0311ZM61.5907,48.1358c-.2471-3.2645-4.9853-3.2026-5.1837.0948-.0264,3.6202,5.2115,3.6005,5.1846-.0222l-.001-.0727ZM63.2387,49.9762c.482-.0309.9579-.138,1.433-.1762.1937-.0201.4521-.0338.5468-.1789.0965-.1378.0528-.446-.0957-.5167-.8306-.0715-1.7483.1043-2.5618.2255-.2303.0971-.2496.5354-.0331.6514.1754.0696.4783-.0856.655-.0113l.0559.0063ZM63.1206,46.9744c.5363-.055.9876-.0421,1.4905-.132.2525-.0486.3306-.4122.1514-.5668-.4029-.1519-.8918.0578-1.3197.0595-.4423.0975-.9929-.0043-1.3931.2422-.1036.1078-.0562.383.0853.4535.2.0854.6927-.0473.9307-.0516l.0549-.0048Z"/><path class="b" d="M33.9702,27.4885c-.2044.2242-.1728.6201-.2922.9026-.4448,1.1924-.9081,1.9232.2049,2.8484,11.5303,10.314,6.3989,29.5646-8.4801,32.9161-11.6726,3.0449-24.4202-8.465-22.103-21.7378,1.8416-11.471,14.6192-19.1982,25.6062-14.3468.4352.1578.7679-.0459.8864-.4466.1239-.7218,1.0019-1.7275.3609-2.3376-10.0313-4.673-20.5397-.2058-25.7067,6.6663-9.8988,13.3697-2.4793,33.2575,14.4314,35.6346,9.1848,1.5245,18.4901-4.0861,22.3673-12.4732,4.4598-9.3848,1.6569-21.908-7.2466-27.6424l-.0285.0166Z"/><path class="b" d="M35.3033,1.044c-2.848.081-6.3046-.6339-8.5594,1.547-2.8974,2.8656-2.2695,7.0786.7929,9.5339,1.4454,1.2764,3.1169,2.1004,5.0708,2.3195.52.0228,2.058.2932,1.68-.6306-.3925-.6094-.6298-1.5562-1.4183-1.7299-1.3165-.1371-2.5865-.4804-3.616-1.2907-1.8603-1.2724-3.3091-3.5769-1.8698-5.7043.8159-1.4105,2.4665-2.1677,4.0837-2.0701,2.7747.008,5.5191.0407,8.2964.0349.8554.0564,1.845-.5401,1.4194-1.5026-.1443-.3065-.4682-.4487-.7924-.47-.8004-.0276-1.6432-.0137-2.4639-.0196-.8626-.0031-1.8022.0122-2.5549-.0153l-.0685-.0019Z"/><path class="b" d="M67.1104,3.2098c-.4832-.0283-1.2395.1477-1.5251-.347-.143-.2848-.0173-.6255.228-.84,1.1275-.7755,2.6392-1.0904,3.9577-.8844,4.5939,1.7593,5.4596.661,9.829-.737.7725-.2421,2.1614-.9404,1.8487.3828-.3984,1.184-.4039,2.7016-1.5499,3.4214-.8845.519-1.8205.9732-2.7244,1.4619-.8549.4427-1.759,1.016-2.7204,1.0054-1.5523-.0122-2.9334-.9059-4.1542-1.7798-.9328-.6274-1.9213-1.7498-3.1218-1.6825l-.0677-.0007ZM69.7548,3.3247c1.9263,1.6329,4.2971,3.2512,6.7261,1.5632-.0026-.0654-.2279-.0339-.2975-.0361-2.4575.1771-4.3371-1.1575-6.4227-1.5397l-.0059.0126Z"/><path class="b" d="M61.7917,35.6861c.1125-.2735.0803-.6079.1796-.9683.1834-.7109-.3117-.9249-.9199-.9003-2.9814.0722-5.9506-.0987-8.9249.0693-.7228.1456-.6529,1.1569-.3623,1.628.2588.3749.7956.3962,1.2246.4,2.7333-.0279,5.445-.0482,8.1723-.069.2025-.0052.4917.0234.6068-.1243l.0239-.0354Z"/><polygon class="c" points="32.6189 56.4152 32.6143 56.371 32.5436 56.3914 32.6189 56.4152"/><path class="b" d="M60.6096,48.2402c-.0261-2.0437-3.0908-2.0918-3.2636-.0994-.1288,2.3094,3.2316,2.4844,3.2645.1706l-.0009-.0712Z"/><path class="b" d="M89.7764,44.3884c4.7158,0,9.4316,0,14.1474,0,.6223,0,.6233.9671,0,.9671-4.7158,0-9.4316,0-14.1474,0-.6223,0-.6233-.9671,0-.9671h0Z"/><path class="b" d="M89.578,48.7054c2.9965,3.062,5.993,6.124,8.9895,9.186.4356.4452-.2476,1.1296-.6838.6838-2.9965-3.062-5.993-6.124-8.9895-9.186-.4356-.4452.2476-1.1296.6838-.6838h0Z"/><path class="b" d="M24.432,47.7721c2.9965,3.062,5.993,6.124,8.9895,9.186.4356.4452-.2476,1.1296-.6838.6838-2.9965-3.062-5.993-6.124-8.9895-9.186-.4356-.4452.2476-1.1296.6838-.6838h0Z"/><path class="b" d="M9.6952,32.7896c2.9965,3.062,5.993,6.124,8.9895,9.186.4356.4452-.2476,1.1296-.6838.6838-2.9965-3.062-5.993-6.124-8.9895-9.186-.4356-.4452.2476-1.1296.6838-.6838h0Z"/><path class="b" d="M18.6846,47.4014c-3.3269,2.6994-6.6538,5.3987-9.9806,8.0981-.4792.3888-1.1675-.2914-.6838-.6838,3.3269-2.6994,6.6538-5.3987,9.9806-8.0981.4792-.3888,1.1675.2914.6838.6838h0Z"/><path class="b" d="M97.2676,31.4829c-2.384,3.1595-4.768,6.319-7.152,9.4786l-1.0024,1.3285c-.3702.4907-1.2104.0093-.8351-.4881,2.384-3.1595,4.768-6.319,7.152-9.4786l1.0024-1.3285c.3702-.4907,1.2104-.0093.8351.4881h0Z"/><path class="b" d="M74.8261,35.5893c2.5047,1.7633,5.0095,3.5267,7.5142,5.29l1.0639.749c.505.3555.0224,1.1944-.4881.8351-2.5047-1.7633-5.0095-3.5267-7.5142-5.29l-1.0639-.749c-.505-.3555-.0224-1.1944.4881-.8351h0Z"/><path class="b" d="M87.0988,50.404c-1.1319,3.3813-2.2638,6.7626-3.3957,10.144l-.485,1.449c-.1966.5872-1.1309.3354-.9326-.2571,1.1319-3.3813,2.2638-6.7626,3.3957-10.144l.485-1.449c.1966-.5872,1.1309-.3354.9326.2571h0Z"/><path class="b" d="M21.7522,48.842c-.0305,4.0621-.0611,8.1243-.0916,12.1864l-.0129,1.7221c-.0047.622-.9718.6235-.9671,0,.0305-4.0621.0611-8.1243.0916-12.1864.0043-.574.0086-1.1481.0129-1.7221.0047-.622.9718-.6235.9671,0h0Z"/><path class="b" d="M25.3273,45.7369h10.3126c.4923,0,.9846,0,1.4769,0,.6223,0,.6233.9671,0,.9671h-10.3126c-.4923,0-.9846,0-1.4769,0-.6223,0-.6233-.9671,0-.9671h0Z"/><path class="b" d="M19.7031,42.6426c-.8738-4.1541-1.7476-8.3082-2.6214-12.4623-.125-.5944-.2501-1.1889-.3751-1.7833-.1277-.6072.8043-.8668.9326-.2571.8738,4.1541,1.7476,8.3082,2.6214,12.4623.125.5944.2501,1.1889.3751,1.7833.1277.6072-.8043.8668-.9326.2571h0Z"/><path class="b" d="M17.7812,44.9452c-3.8585-.7105-7.717-1.4209-11.5755-2.1314-.5462-.1006-1.0924-.2011-1.6386-.3017-.6112-.1125-.3523-1.0448.2571-.9326,3.8585.7105,7.717,1.4209,11.5755,2.1314.5462.1006,1.0924.2011,1.6386.3017.6112.1125.3523,1.0448-.2571.9326h0Z"/></svg>